# xmcd
#
# Track frame offsets:
#	150
#	9471
#	19802
#	33039
#	44925
#	63490
#	77783
#	93577
#	105441
#	119372
#	134253
#	156809
#	168564
#	186544
#
# Disc length: 2697 seconds
#
# Revision: 0
# Processed by: cddbd v1.5.2PL0 Copyright (c) Steve Scherf et al.
# Submitted via: EasyCDDAExtractor 4.6.9.1
#
DISCID=bb0a870e
DTITLE=Artistes variés - 75 ans 75 chansons [CD 2)
DYEAR=2011
DGENRE=Québécois
TTITLE0=Nous on est dans le vent (Pierre Lalonde)
TTITLE1=Un jour un jour (Donald Lautrec)
TTITLE2=Ton amour a changé ma vie (Les Classels)
TTITLE3=Donnez-moi des roses (Fernand Gignac)
TTITLE4=La Manic (George Dor)
TTITLE5=Frédéric (Claude Léveillée)
TTITLE6=Les gens de mon pays (Gilles Vigneault)
TTITLE7=Pour cet amour (Monique Leyrac)
TTITLE8=Aimons-nous (Yvon Deschamps)
TTITLE9=Le petit roi (Jean-Pierre Ferland)
TTITLE10=Les ailes d'un ange (Robert Charlebois)
TTITLE11=C'est le début d'un temps nouveau (Renée Claude)
TTITLE12=Les chemins d'été (Steve Fiset)
TTITLE13=Le temps est bon (Isabelle Pierre)
EXTD=
EXTT0=
EXTT1=
EXTT2=
EXTT3=
EXTT4=
EXTT5=
EXTT6=
EXTT7=
EXTT8=
EXTT9=
EXTT10=
EXTT11=
EXTT12=
EXTT13=
PLAYORDER=
